<svg id="Capa_1" enable-background="new 0 0 512.254 512.254" height="512" viewBox="0 0 512.254 512.254" width="512" xmlns="http://www.w3.org/2000/svg"><g><path d="m271.206 150.155h35.649l-19.146 38.292c-3.705 7.41-.701 16.42 6.708 20.125 7.419 3.71 16.425.691 20.125-6.708l30-60c4.991-9.982-2.329-21.708-13.417-21.708h-35.729l19.146-38.292c3.705-7.41.701-16.42-6.708-20.125-7.41-3.705-16.42-.701-20.125 6.708-31.05 62.311-30.282 60.095-30.992 62.568-2.77 9.606 4.543 19.218 14.489 19.14z"/><path d="m215.519 175.761c5.858 5.858 15.355 5.858 21.213 0s5.858-15.355 0-21.213l-30-30c-5.857-5.857-15.355-5.857-21.213 0-5.858 5.858-5.858 15.355 0 21.213z"/><path d="m484.82 241.934c6.798-22.462-4.829-46.978-27.667-55.291-25.208-9.173-52.736 5.571-59.107 31.609-2.547 10.41-11.621 19.931-24.849 26.099l-42.071 19.446v-16.987c37.116-24.911 60-66.239 60-111.656 0-74.439-60.561-135-135-135s-135 60.561-135 135c0 45.417 22.885 86.745 60 111.656v17.001l-42.026-19.438c-13.274-6.19-22.348-15.71-24.895-26.121-6.376-26.056-33.919-40.776-59.107-31.609-22.847 8.315-34.464 32.834-27.667 55.291-21.667 9.238-32.866 34.011-24.585 56.765 9.174 25.208 38.167 36.818 62.208 24.961 9.612-4.74 22.736-3.909 36.075 2.311l47.843 22.022-47.907 22.144c-13.274 6.19-26.4 7.021-36.012 2.28-38.072-18.776-78.565 21.068-60.705 59.37 4.725 10.134 12.858 17.991 23.062 22.348-3.222 10.617-2.43 21.897 2.295 32.031 18.029 38.664 74.48 32.62 84.5-8.341 2.547-10.41 11.62-19.929 24.846-26.097l116.893-54.03 115.823 54.009c14.056 6.554 23.879 16.318 26.277 26.118 10.017 40.951 66.464 47.019 84.5 8.342 4.726-10.134 5.517-21.415 2.295-32.031 10.204-4.356 18.336-12.214 23.062-22.347 17.872-38.328-22.65-78.137-60.705-59.37-9.613 4.741-22.738 3.91-36.011-2.28-.031-.014-48.025-21.997-48.025-21.997l48.029-22.2c13.272-6.189 26.397-7.02 36.008-2.28 24.104 11.887 53.058.181 62.208-24.961 8.283-22.761-2.925-47.532-24.585-56.767zm-333.695-106.779c0-57.897 47.103-105 105-105s105 47.103 105 105c0 37.451-19.643 71.242-52.545 90.392-4.615 2.686-7.455 7.624-7.455 12.964v31.644h-30v-30c0-8.284-6.716-15-15-15s-15 6.716-15 15v30h-30v-31.645c0-5.34-2.839-10.278-7.455-12.964-32.902-19.149-52.545-52.94-52.545-90.391zm-37.384 163.595c-21.561-10.054-44.144-10.781-61.956-1.996-8.034 3.964-17.693.079-20.748-8.315-4.592-12.62 8.449-24.315 20.435-18.725 18.031 8.406 30.568-18.847 12.679-27.189-12.036-5.612-11.314-23.133 1.209-27.69 8.384-3.052 17.575 1.838 19.706 10.548 4.721 19.293 19.794 36.125 41.399 46.199l93.88 43.421-35.572 16.442zm284.821 98.602c21.545 10.03 44.104 10.749 61.903 1.971 12.615-6.219 26.259 6.892 20.247 19.785-3.502 7.513-12.42 10.761-19.934 7.255-7.508-3.5-16.433-.252-19.934 7.255-3.499 7.507-.254 16.432 7.255 19.934 7.514 3.503 10.76 12.418 7.255 19.934-5.917 12.692-24.789 11.027-28.17-2.792-4.607-18.829-20.185-35.66-42.739-46.178l-92.852-43.298 35.709-16.506zm82.652-108.913c-3.051 8.385-12.704 12.282-20.748 8.315-17.814-8.785-40.396-8.057-61.91 1.975-109.193 50.471-118.027 54.523-272.137 125.788-21.561 10.054-36.634 26.885-41.354 46.178-3.342 13.659-22.159 15.685-28.17 2.792-3.504-7.514-.26-16.429 7.255-19.934 17.976-8.383 5.317-35.583-12.679-27.189-7.511 3.504-16.43.259-19.934-7.255-5.948-12.754 7.531-26.057 20.246-19.785 17.814 8.785 40.397 8.058 61.914-1.976 7.346-3.395 262.234-121.2 272.131-125.785 21.562-10.055 36.636-26.887 41.356-46.179 2.129-8.702 11.313-13.604 19.707-10.549 12.526 4.56 13.239 22.081 1.208 27.69-17.993 8.391-5.304 35.572 12.679 27.189 12.176-5.675 24.957 6.299 20.436 18.725z"/></g></svg>